<mxfile host="app.diagrams.net" agent="Mozilla/5.0 (Macintosh; Intel Mac OS X 10_15_7) AppleWebKit/537.36 (KHTML, like Gecko) Chrome/131.0.0.0 Safari/537.36" version="25.0.3">
  <diagram id="C5RBs43oDa-KdzZeNtuy" name="Page-1">
    <mxGraphModel dx="1956" dy="745" grid="1" gridSize="10" guides="1" tooltips="1" connect="1" arrows="1" fold="1" page="1" pageScale="1" pageWidth="827" pageHeight="1169" math="1" shadow="0">
      <root>
        <mxCell id="WIyWlLk6GJQsqaUBKTNV-0" />
        <mxCell id="WIyWlLk6GJQsqaUBKTNV-1" parent="WIyWlLk6GJQsqaUBKTNV-0" />
        <mxCell id="f4xyCQLTvyVlBibsgJEd-58" value="" style="rounded=0;whiteSpace=wrap;html=1;fillColor=#f5f5f5;strokeColor=#666666;fontColor=#333333;" vertex="1" parent="WIyWlLk6GJQsqaUBKTNV-1">
          <mxGeometry x="35" y="30" width="945" height="170" as="geometry" />
        </mxCell>
        <mxCell id="f4xyCQLTvyVlBibsgJEd-56" value="" style="rounded=0;whiteSpace=wrap;html=1;fillColor=#dae8fc;strokeColor=#6c8ebf;" vertex="1" parent="WIyWlLk6GJQsqaUBKTNV-1">
          <mxGeometry x="35" y="200" width="945" height="170" as="geometry" />
        </mxCell>
        <mxCell id="f4xyCQLTvyVlBibsgJEd-57" value="" style="rounded=0;whiteSpace=wrap;html=1;fillColor=#3399FF;strokeColor=#6c8ebf;opacity=30;" vertex="1" parent="WIyWlLk6GJQsqaUBKTNV-1">
          <mxGeometry x="150" y="210" width="820" height="150" as="geometry" />
        </mxCell>
        <mxCell id="f4xyCQLTvyVlBibsgJEd-1" value="&lt;font face=&quot;Times New Roman&quot;&gt;\(\rho_g\)&lt;/font&gt;" style="shape=parallelogram;perimeter=parallelogramPerimeter;whiteSpace=wrap;html=1;fixedSize=1;" vertex="1" parent="WIyWlLk6GJQsqaUBKTNV-1">
          <mxGeometry x="40" y="90" width="100" height="30" as="geometry" />
        </mxCell>
        <mxCell id="f4xyCQLTvyVlBibsgJEd-2" value="&lt;font face=&quot;Times New Roman&quot;&gt;\(T_g\)&lt;/font&gt;" style="shape=parallelogram;perimeter=parallelogramPerimeter;whiteSpace=wrap;html=1;fixedSize=1;" vertex="1" parent="WIyWlLk6GJQsqaUBKTNV-1">
          <mxGeometry x="40" y="140" width="100" height="30" as="geometry" />
        </mxCell>
        <mxCell id="f4xyCQLTvyVlBibsgJEd-3" value="&lt;font style=&quot;font-size: 10px;&quot; face=&quot;Courier New&quot;&gt;convert_profiles&lt;/font&gt;&lt;div&gt;&lt;font style=&quot;font-size: 10px;&quot; face=&quot;Courier New&quot;&gt;_to_fields&lt;/font&gt;&lt;/div&gt;" style="shape=process;whiteSpace=wrap;html=1;backgroundOutline=1;" vertex="1" parent="WIyWlLk6GJQsqaUBKTNV-1">
          <mxGeometry x="170" y="70" width="150" height="110" as="geometry" />
        </mxCell>
        <mxCell id="f4xyCQLTvyVlBibsgJEd-4" value="" style="endArrow=classic;html=1;rounded=0;exitX=1;exitY=0.5;exitDx=0;exitDy=0;entryX=-0.005;entryY=0.772;entryDx=0;entryDy=0;entryPerimeter=0;" edge="1" parent="WIyWlLk6GJQsqaUBKTNV-1" source="f4xyCQLTvyVlBibsgJEd-2" target="f4xyCQLTvyVlBibsgJEd-3">
          <mxGeometry width="50" height="50" relative="1" as="geometry">
            <mxPoint x="130" y="170" as="sourcePoint" />
            <mxPoint x="180" y="120" as="targetPoint" />
          </mxGeometry>
        </mxCell>
        <mxCell id="f4xyCQLTvyVlBibsgJEd-5" value="" style="endArrow=classic;html=1;rounded=0;exitX=1;exitY=0.5;exitDx=0;exitDy=0;entryX=-0.005;entryY=0.772;entryDx=0;entryDy=0;entryPerimeter=0;" edge="1" parent="WIyWlLk6GJQsqaUBKTNV-1" source="f4xyCQLTvyVlBibsgJEd-1">
          <mxGeometry width="50" height="50" relative="1" as="geometry">
            <mxPoint x="131" y="104.87" as="sourcePoint" />
            <mxPoint x="170" y="104.87" as="targetPoint" />
          </mxGeometry>
        </mxCell>
        <mxCell id="f4xyCQLTvyVlBibsgJEd-6" value="" style="endArrow=classic;html=1;rounded=0;exitX=0.5;exitY=1;exitDx=0;exitDy=0;entryX=0.5;entryY=0;entryDx=0;entryDy=0;" edge="1" parent="WIyWlLk6GJQsqaUBKTNV-1" source="f4xyCQLTvyVlBibsgJEd-3" target="f4xyCQLTvyVlBibsgJEd-9">
          <mxGeometry width="50" height="50" relative="1" as="geometry">
            <mxPoint x="260" y="260" as="sourcePoint" />
            <mxPoint x="275" y="220" as="targetPoint" />
          </mxGeometry>
        </mxCell>
        <mxCell id="f4xyCQLTvyVlBibsgJEd-39" style="edgeStyle=orthogonalEdgeStyle;rounded=0;orthogonalLoop=1;jettySize=auto;html=1;exitX=1;exitY=0.5;exitDx=0;exitDy=0;entryX=0;entryY=0.25;entryDx=0;entryDy=0;" edge="1" parent="WIyWlLk6GJQsqaUBKTNV-1" source="f4xyCQLTvyVlBibsgJEd-8" target="f4xyCQLTvyVlBibsgJEd-38">
          <mxGeometry relative="1" as="geometry">
            <Array as="points">
              <mxPoint x="210" y="235" />
              <mxPoint x="210" y="350" />
              <mxPoint x="810" y="350" />
              <mxPoint x="810" y="98" />
            </Array>
          </mxGeometry>
        </mxCell>
        <mxCell id="f4xyCQLTvyVlBibsgJEd-8" value="\(\rho_g\)" style="rounded=0;whiteSpace=wrap;html=1;" vertex="1" parent="WIyWlLk6GJQsqaUBKTNV-1">
          <mxGeometry x="170" y="220" width="20" height="30" as="geometry" />
        </mxCell>
        <mxCell id="f4xyCQLTvyVlBibsgJEd-9" value="\(T_g\)" style="rounded=0;whiteSpace=wrap;html=1;" vertex="1" parent="WIyWlLk6GJQsqaUBKTNV-1">
          <mxGeometry x="232.5" y="220" width="25" height="30" as="geometry" />
        </mxCell>
        <mxCell id="f4xyCQLTvyVlBibsgJEd-40" style="edgeStyle=orthogonalEdgeStyle;rounded=0;orthogonalLoop=1;jettySize=auto;html=1;entryX=0;entryY=0.5;entryDx=0;entryDy=0;" edge="1" parent="WIyWlLk6GJQsqaUBKTNV-1" source="f4xyCQLTvyVlBibsgJEd-10" target="f4xyCQLTvyVlBibsgJEd-38">
          <mxGeometry relative="1" as="geometry">
            <Array as="points">
              <mxPoint x="350" y="235" />
              <mxPoint x="350" y="340" />
              <mxPoint x="790" y="340" />
              <mxPoint x="790" y="125" />
            </Array>
          </mxGeometry>
        </mxCell>
        <mxCell id="f4xyCQLTvyVlBibsgJEd-10" value="\(\rho_*\)" style="rounded=0;whiteSpace=wrap;html=1;" vertex="1" parent="WIyWlLk6GJQsqaUBKTNV-1">
          <mxGeometry x="300" y="220" width="20" height="30" as="geometry" />
        </mxCell>
        <mxCell id="f4xyCQLTvyVlBibsgJEd-12" value="" style="endArrow=classic;html=1;rounded=0;exitX=0.5;exitY=1;exitDx=0;exitDy=0;" edge="1" parent="WIyWlLk6GJQsqaUBKTNV-1">
          <mxGeometry width="50" height="50" relative="1" as="geometry">
            <mxPoint x="179.76" y="180" as="sourcePoint" />
            <mxPoint x="179.76" y="220" as="targetPoint" />
          </mxGeometry>
        </mxCell>
        <mxCell id="f4xyCQLTvyVlBibsgJEd-13" value="" style="endArrow=classic;html=1;rounded=0;exitX=0.5;exitY=1;exitDx=0;exitDy=0;" edge="1" parent="WIyWlLk6GJQsqaUBKTNV-1">
          <mxGeometry width="50" height="50" relative="1" as="geometry">
            <mxPoint x="309.76" y="180" as="sourcePoint" />
            <mxPoint x="309.76" y="220" as="targetPoint" />
          </mxGeometry>
        </mxCell>
        <mxCell id="f4xyCQLTvyVlBibsgJEd-15" value="&lt;font face=&quot;Courier New&quot;&gt;&lt;span style=&quot;font-size: 10px;&quot;&gt;solve_eos&lt;/span&gt;&lt;/font&gt;&lt;div&gt;&lt;font face=&quot;Courier New&quot;&gt;&lt;span style=&quot;font-size: 10px;&quot;&gt;&lt;br&gt;&lt;/span&gt;&lt;/font&gt;&lt;/div&gt;&lt;div&gt;&lt;font face=&quot;Courier New&quot;&gt;&lt;span style=&quot;font-size: 10px;&quot;&gt;\(P = f(\rho_g,T_g)\)&lt;/span&gt;&lt;/font&gt;&lt;/div&gt;" style="shape=process;whiteSpace=wrap;html=1;backgroundOutline=1;" vertex="1" parent="WIyWlLk6GJQsqaUBKTNV-1">
          <mxGeometry x="370" y="70" width="100" height="110" as="geometry" />
        </mxCell>
        <mxCell id="f4xyCQLTvyVlBibsgJEd-16" value="" style="endArrow=classic;html=1;rounded=0;exitX=1;exitY=0.5;exitDx=0;exitDy=0;entryX=0;entryY=0.75;entryDx=0;entryDy=0;" edge="1" parent="WIyWlLk6GJQsqaUBKTNV-1" source="f4xyCQLTvyVlBibsgJEd-8" target="f4xyCQLTvyVlBibsgJEd-15">
          <mxGeometry width="50" height="50" relative="1" as="geometry">
            <mxPoint x="190" y="240" as="sourcePoint" />
            <mxPoint x="240" y="190" as="targetPoint" />
            <Array as="points">
              <mxPoint x="210" y="235" />
              <mxPoint x="210" y="190" />
              <mxPoint x="270" y="190" />
              <mxPoint x="330" y="190" />
              <mxPoint x="330" y="152" />
            </Array>
          </mxGeometry>
        </mxCell>
        <mxCell id="f4xyCQLTvyVlBibsgJEd-17" value="" style="endArrow=classic;html=1;rounded=0;exitX=1;exitY=0.5;exitDx=0;exitDy=0;entryX=0.001;entryY=0.37;entryDx=0;entryDy=0;entryPerimeter=0;" edge="1" parent="WIyWlLk6GJQsqaUBKTNV-1" target="f4xyCQLTvyVlBibsgJEd-15">
          <mxGeometry width="50" height="50" relative="1" as="geometry">
            <mxPoint x="257.5" y="233" as="sourcePoint" />
            <mxPoint x="437.5" y="150" as="targetPoint" />
            <Array as="points">
              <mxPoint x="280" y="233" />
              <mxPoint x="280" y="210" />
              <mxPoint x="340" y="210" />
              <mxPoint x="340" y="110" />
            </Array>
          </mxGeometry>
        </mxCell>
        <mxCell id="f4xyCQLTvyVlBibsgJEd-18" value="\(P\)" style="rounded=0;whiteSpace=wrap;html=1;" vertex="1" parent="WIyWlLk6GJQsqaUBKTNV-1">
          <mxGeometry x="410" y="220" width="20" height="30" as="geometry" />
        </mxCell>
        <mxCell id="f4xyCQLTvyVlBibsgJEd-19" value="" style="endArrow=classic;html=1;rounded=0;exitX=0.5;exitY=1;exitDx=0;exitDy=0;entryX=0.5;entryY=0;entryDx=0;entryDy=0;" edge="1" parent="WIyWlLk6GJQsqaUBKTNV-1">
          <mxGeometry width="50" height="50" relative="1" as="geometry">
            <mxPoint x="419.77" y="180" as="sourcePoint" />
            <mxPoint x="419.77" y="220" as="targetPoint" />
          </mxGeometry>
        </mxCell>
        <mxCell id="f4xyCQLTvyVlBibsgJEd-20" value="&lt;font face=&quot;Courier New&quot;&gt;&lt;span style=&quot;font-size: 10px;&quot;&gt;solve_hse&lt;/span&gt;&lt;/font&gt;&lt;div&gt;&lt;font face=&quot;Courier New&quot;&gt;&lt;span style=&quot;font-size: 10px;&quot;&gt;&lt;br&gt;&lt;/span&gt;&lt;/font&gt;&lt;/div&gt;&lt;div&gt;&lt;font face=&quot;Courier New&quot;&gt;&lt;span style=&quot;font-size: 10px;&quot;&gt;\(\frac{\nabla P}{\rho} = \nabla \Phi\)&lt;/span&gt;&lt;/font&gt;&lt;/div&gt;" style="shape=process;whiteSpace=wrap;html=1;backgroundOutline=1;" vertex="1" parent="WIyWlLk6GJQsqaUBKTNV-1">
          <mxGeometry x="510" y="70" width="100" height="110" as="geometry" />
        </mxCell>
        <mxCell id="f4xyCQLTvyVlBibsgJEd-28" style="edgeStyle=orthogonalEdgeStyle;rounded=0;orthogonalLoop=1;jettySize=auto;html=1;entryX=0;entryY=0.5;entryDx=0;entryDy=0;" edge="1" parent="WIyWlLk6GJQsqaUBKTNV-1" source="f4xyCQLTvyVlBibsgJEd-21" target="f4xyCQLTvyVlBibsgJEd-26">
          <mxGeometry relative="1" as="geometry">
            <Array as="points">
              <mxPoint x="560" y="235" />
              <mxPoint x="560" y="190" />
              <mxPoint x="620" y="190" />
              <mxPoint x="620" y="125" />
            </Array>
          </mxGeometry>
        </mxCell>
        <mxCell id="f4xyCQLTvyVlBibsgJEd-21" value="\(\nabla \Phi\)" style="rounded=0;whiteSpace=wrap;html=1;" vertex="1" parent="WIyWlLk6GJQsqaUBKTNV-1">
          <mxGeometry x="510" y="220" width="30" height="30" as="geometry" />
        </mxCell>
        <mxCell id="f4xyCQLTvyVlBibsgJEd-22" value="\(\Phi\)" style="rounded=0;whiteSpace=wrap;html=1;" vertex="1" parent="WIyWlLk6GJQsqaUBKTNV-1">
          <mxGeometry x="590" y="220" width="20" height="30" as="geometry" />
        </mxCell>
        <mxCell id="f4xyCQLTvyVlBibsgJEd-23" value="" style="endArrow=classic;html=1;rounded=0;exitX=0.5;exitY=1;exitDx=0;exitDy=0;entryX=0.5;entryY=0;entryDx=0;entryDy=0;" edge="1" parent="WIyWlLk6GJQsqaUBKTNV-1">
          <mxGeometry width="50" height="50" relative="1" as="geometry">
            <mxPoint x="524.77" y="180" as="sourcePoint" />
            <mxPoint x="524.77" y="220" as="targetPoint" />
          </mxGeometry>
        </mxCell>
        <mxCell id="f4xyCQLTvyVlBibsgJEd-24" value="" style="endArrow=classic;html=1;rounded=0;exitX=0.5;exitY=1;exitDx=0;exitDy=0;entryX=0.5;entryY=0;entryDx=0;entryDy=0;" edge="1" parent="WIyWlLk6GJQsqaUBKTNV-1">
          <mxGeometry width="50" height="50" relative="1" as="geometry">
            <mxPoint x="599.77" y="180" as="sourcePoint" />
            <mxPoint x="599.77" y="220" as="targetPoint" />
          </mxGeometry>
        </mxCell>
        <mxCell id="f4xyCQLTvyVlBibsgJEd-25" value="" style="endArrow=classic;html=1;rounded=0;exitX=1;exitY=0.5;exitDx=0;exitDy=0;entryX=0;entryY=0.5;entryDx=0;entryDy=0;" edge="1" parent="WIyWlLk6GJQsqaUBKTNV-1" target="f4xyCQLTvyVlBibsgJEd-20">
          <mxGeometry width="50" height="50" relative="1" as="geometry">
            <mxPoint x="429.9999999999999" y="240" as="sourcePoint" />
            <mxPoint x="490" y="130" as="targetPoint" />
            <Array as="points">
              <mxPoint x="440" y="240" />
              <mxPoint x="440" y="190" />
              <mxPoint x="460" y="190" />
              <mxPoint x="480" y="190" />
              <mxPoint x="480" y="125" />
            </Array>
          </mxGeometry>
        </mxCell>
        <mxCell id="f4xyCQLTvyVlBibsgJEd-26" value="&lt;font face=&quot;Courier New&quot;&gt;&lt;span style=&quot;font-size: 10px;&quot;&gt;compute_total&lt;/span&gt;&lt;/font&gt;&lt;div&gt;&lt;font face=&quot;Courier New&quot;&gt;&lt;span style=&quot;font-size: 10px;&quot;&gt;_mass_gauss&lt;/span&gt;&lt;/font&gt;&lt;br&gt;&lt;div&gt;&lt;font face=&quot;Courier New&quot;&gt;&lt;span style=&quot;font-size: 10px;&quot;&gt;&lt;br&gt;&lt;/span&gt;&lt;/font&gt;&lt;/div&gt;&lt;div&gt;&lt;font face=&quot;Courier New&quot;&gt;&lt;span style=&quot;font-size: 10px;&quot;&gt;(spherical)&lt;/span&gt;&lt;/font&gt;&lt;/div&gt;&lt;div&gt;&lt;font face=&quot;Courier New&quot;&gt;&lt;span style=&quot;font-size: 10px;&quot;&gt;&lt;br&gt;&lt;/span&gt;&lt;/font&gt;&lt;/div&gt;&lt;div&gt;&lt;font face=&quot;Courier New&quot;&gt;&lt;span style=&quot;font-size: 10px;&quot;&gt;\(\nabla^2 \Phi = 4\pi G \rho_{\rm dyn}\)&lt;/span&gt;&lt;/font&gt;&lt;/div&gt;&lt;/div&gt;" style="shape=process;whiteSpace=wrap;html=1;backgroundOutline=1;" vertex="1" parent="WIyWlLk6GJQsqaUBKTNV-1">
          <mxGeometry x="640" y="70" width="140" height="110" as="geometry" />
        </mxCell>
        <mxCell id="f4xyCQLTvyVlBibsgJEd-29" value="\(M_{\rm dyn}\)" style="rounded=0;whiteSpace=wrap;html=1;" vertex="1" parent="WIyWlLk6GJQsqaUBKTNV-1">
          <mxGeometry x="640" y="220" width="40" height="30" as="geometry" />
        </mxCell>
        <mxCell id="f4xyCQLTvyVlBibsgJEd-30" value="" style="endArrow=classic;html=1;rounded=0;exitX=0.5;exitY=1;exitDx=0;exitDy=0;entryX=0.5;entryY=0;entryDx=0;entryDy=0;" edge="1" parent="WIyWlLk6GJQsqaUBKTNV-1">
          <mxGeometry width="50" height="50" relative="1" as="geometry">
            <mxPoint x="659.67" y="180" as="sourcePoint" />
            <mxPoint x="659.67" y="220" as="targetPoint" />
          </mxGeometry>
        </mxCell>
        <mxCell id="f4xyCQLTvyVlBibsgJEd-32" value="\(M_g\)" style="rounded=0;whiteSpace=wrap;html=1;" vertex="1" parent="WIyWlLk6GJQsqaUBKTNV-1">
          <mxGeometry x="165" y="290" width="30" height="30" as="geometry" />
        </mxCell>
        <mxCell id="f4xyCQLTvyVlBibsgJEd-33" value="" style="endArrow=classic;html=1;rounded=0;exitX=0.5;exitY=1;exitDx=0;exitDy=0;fillColor=#f8cecc;strokeColor=#b85450;" edge="1" parent="WIyWlLk6GJQsqaUBKTNV-1">
          <mxGeometry width="50" height="50" relative="1" as="geometry">
            <mxPoint x="179.76" y="250" as="sourcePoint" />
            <mxPoint x="179.76" y="290" as="targetPoint" />
          </mxGeometry>
        </mxCell>
        <mxCell id="f4xyCQLTvyVlBibsgJEd-34" value="\(M_*\)" style="rounded=0;whiteSpace=wrap;html=1;" vertex="1" parent="WIyWlLk6GJQsqaUBKTNV-1">
          <mxGeometry x="295" y="290" width="30" height="30" as="geometry" />
        </mxCell>
        <mxCell id="f4xyCQLTvyVlBibsgJEd-35" value="" style="endArrow=classic;html=1;rounded=0;exitX=0.5;exitY=1;exitDx=0;exitDy=0;fillColor=#f8cecc;strokeColor=#b85450;" edge="1" parent="WIyWlLk6GJQsqaUBKTNV-1">
          <mxGeometry width="50" height="50" relative="1" as="geometry">
            <mxPoint x="309.76" y="250" as="sourcePoint" />
            <mxPoint x="309.76" y="290" as="targetPoint" />
          </mxGeometry>
        </mxCell>
        <mxCell id="f4xyCQLTvyVlBibsgJEd-36" value="\(\rho_{\rm dyn}\)" style="rounded=0;whiteSpace=wrap;html=1;" vertex="1" parent="WIyWlLk6GJQsqaUBKTNV-1">
          <mxGeometry x="642.5" y="290" width="35" height="30" as="geometry" />
        </mxCell>
        <mxCell id="f4xyCQLTvyVlBibsgJEd-37" value="" style="endArrow=classic;html=1;rounded=0;exitX=0.5;exitY=1;exitDx=0;exitDy=0;fillColor=#dae8fc;strokeColor=#6c8ebf;" edge="1" parent="WIyWlLk6GJQsqaUBKTNV-1">
          <mxGeometry width="50" height="50" relative="1" as="geometry">
            <mxPoint x="659.76" y="250" as="sourcePoint" />
            <mxPoint x="659.76" y="290" as="targetPoint" />
          </mxGeometry>
        </mxCell>
        <mxCell id="f4xyCQLTvyVlBibsgJEd-38" value="&lt;div&gt;&lt;font face=&quot;Courier New&quot;&gt;&lt;span style=&quot;font-size: 10px;&quot;&gt;compute_missing&lt;/span&gt;&lt;/font&gt;&lt;/div&gt;&lt;div&gt;&lt;font face=&quot;Courier New&quot;&gt;&lt;span style=&quot;font-size: 10px;&quot;&gt;density_field&lt;br&gt;&lt;/span&gt;&lt;/font&gt;&lt;div&gt;&lt;font face=&quot;Courier New&quot;&gt;&lt;span style=&quot;font-size: 10px;&quot;&gt;&lt;br&gt;&lt;/span&gt;&lt;/font&gt;&lt;/div&gt;&lt;div&gt;&lt;font face=&quot;Courier New&quot;&gt;&lt;span style=&quot;font-size: 10px;&quot;&gt;\(\rho_{\rm dyn} = \rho_{\rm dm} + \rho_g + \rho_*\)&lt;/span&gt;&lt;/font&gt;&lt;/div&gt;&lt;/div&gt;" style="shape=process;whiteSpace=wrap;html=1;backgroundOutline=1;" vertex="1" parent="WIyWlLk6GJQsqaUBKTNV-1">
          <mxGeometry x="827" y="70" width="140" height="110" as="geometry" />
        </mxCell>
        <mxCell id="f4xyCQLTvyVlBibsgJEd-41" style="edgeStyle=orthogonalEdgeStyle;rounded=0;orthogonalLoop=1;jettySize=auto;html=1;entryX=0;entryY=0.701;entryDx=0;entryDy=0;entryPerimeter=0;" edge="1" parent="WIyWlLk6GJQsqaUBKTNV-1" source="f4xyCQLTvyVlBibsgJEd-36" target="f4xyCQLTvyVlBibsgJEd-38">
          <mxGeometry relative="1" as="geometry">
            <Array as="points">
              <mxPoint x="800" y="305" />
              <mxPoint x="800" y="147" />
            </Array>
          </mxGeometry>
        </mxCell>
        <mxCell id="f4xyCQLTvyVlBibsgJEd-42" value="\(\rho_{\rm dm}\)" style="rounded=0;whiteSpace=wrap;html=1;" vertex="1" parent="WIyWlLk6GJQsqaUBKTNV-1">
          <mxGeometry x="880.5" y="220" width="33" height="30" as="geometry" />
        </mxCell>
        <mxCell id="f4xyCQLTvyVlBibsgJEd-43" value="" style="endArrow=classic;html=1;rounded=0;exitX=0.5;exitY=1;exitDx=0;exitDy=0;" edge="1" parent="WIyWlLk6GJQsqaUBKTNV-1">
          <mxGeometry width="50" height="50" relative="1" as="geometry">
            <mxPoint x="896.58" y="180" as="sourcePoint" />
            <mxPoint x="896.58" y="220" as="targetPoint" />
          </mxGeometry>
        </mxCell>
        <mxCell id="f4xyCQLTvyVlBibsgJEd-44" value="" style="endArrow=classic;html=1;rounded=0;exitX=0.5;exitY=1;exitDx=0;exitDy=0;fillColor=#f8cecc;strokeColor=#b85450;" edge="1" parent="WIyWlLk6GJQsqaUBKTNV-1">
          <mxGeometry width="50" height="50" relative="1" as="geometry">
            <mxPoint x="896.58" y="250" as="sourcePoint" />
            <mxPoint x="896.58" y="290" as="targetPoint" />
          </mxGeometry>
        </mxCell>
        <mxCell id="f4xyCQLTvyVlBibsgJEd-45" value="\(M_{\rm dm}\)" style="rounded=0;whiteSpace=wrap;html=1;" vertex="1" parent="WIyWlLk6GJQsqaUBKTNV-1">
          <mxGeometry x="873.75" y="290" width="46.5" height="30" as="geometry" />
        </mxCell>
        <mxCell id="f4xyCQLTvyVlBibsgJEd-48" value="&lt;b&gt;&lt;font style=&quot;font-size: 18px;&quot;&gt;Pathway:&lt;/font&gt;&lt;/b&gt; &lt;font face=&quot;Courier New&quot;&gt;spherical_dens_temp&lt;/font&gt;" style="text;html=1;align=center;verticalAlign=middle;whiteSpace=wrap;rounded=0;rotation=-90;fontFamily=Times New Roman;" vertex="1" parent="WIyWlLk6GJQsqaUBKTNV-1">
          <mxGeometry x="-90" y="110" width="150" height="30" as="geometry" />
        </mxCell>
        <mxCell id="f4xyCQLTvyVlBibsgJEd-50" value="" style="shape=curlyBracket;whiteSpace=wrap;html=1;rounded=1;labelPosition=left;verticalLabelPosition=middle;align=right;verticalAlign=middle;" vertex="1" parent="WIyWlLk6GJQsqaUBKTNV-1">
          <mxGeometry x="10" y="65" width="20" height="120" as="geometry" />
        </mxCell>
        <mxCell id="f4xyCQLTvyVlBibsgJEd-51" value="&lt;b&gt;&lt;font style=&quot;font-size: 18px;&quot;&gt;Fields&lt;/font&gt;&lt;/b&gt;&amp;nbsp;" style="text;html=1;align=center;verticalAlign=middle;whiteSpace=wrap;rounded=0;rotation=-90;fontFamily=Times New Roman;" vertex="1" parent="WIyWlLk6GJQsqaUBKTNV-1">
          <mxGeometry x="-90" y="270" width="150" height="30" as="geometry" />
        </mxCell>
        <mxCell id="f4xyCQLTvyVlBibsgJEd-52" value="" style="shape=curlyBracket;whiteSpace=wrap;html=1;rounded=1;labelPosition=left;verticalLabelPosition=middle;align=right;verticalAlign=middle;" vertex="1" parent="WIyWlLk6GJQsqaUBKTNV-1">
          <mxGeometry x="10" y="200" width="20" height="170" as="geometry" />
        </mxCell>
        <mxCell id="f4xyCQLTvyVlBibsgJEd-59" value="&lt;b&gt;Axes&lt;/b&gt;: \(\{r\}\)" style="text;html=1;align=center;verticalAlign=middle;whiteSpace=wrap;rounded=0;rotation=-90;" vertex="1" parent="WIyWlLk6GJQsqaUBKTNV-1">
          <mxGeometry x="50" y="270" width="90" height="30" as="geometry" />
        </mxCell>
        <mxCell id="f4xyCQLTvyVlBibsgJEd-60" value="" style="shape=curlyBracket;whiteSpace=wrap;html=1;rounded=1;labelPosition=left;verticalLabelPosition=middle;align=right;verticalAlign=middle;" vertex="1" parent="WIyWlLk6GJQsqaUBKTNV-1">
          <mxGeometry x="120" y="215" width="20" height="140" as="geometry" />
        </mxCell>
      </root>
    </mxGraphModel>
  </diagram>
</mxfile>
